<svg xmlns="http://www.w3.org/2000/svg" width="500" height="500" viewBox="0 0 500 500">
<g>
<path d="M 249.37 423.75 C248.00,429.24 247.14,431.00 245.84,431.00 C245.44,431.00 245.20,431.15 244.95,431.16 C243.94,431.19 242.87,428.86 231.66,404.65 C230.08,401.22 228.29,397.36 226.27,393.00 C215.36,369.46 202.25,341.22 190.99,317.00 C156.61,243.05 112.11,147.14 106.92,135.83 C99.75,120.15 97.43,116.45 90.85,110.14 C83.55,103.14 74.59,98.97 65.34,98.27 C58.45,97.75 58.00,97.57 58.00,95.36 L 58.00 93.00 L 207.00 93.00 L 207.00 95.50 C207.00,97.80 206.64,98.00 202.47,98.00 C186.79,98.00 179.28,112.53 186.17,129.55 C202.15,169.07 264.62,319.99 265.00,319.98 C265.72,319.97 346.80,129.32 348.54,123.54 C350.58,116.76 350.38,113.68 347.53,108.05 C344.08,101.25 340.09,98.66 332.29,98.17 C326.44,97.80 326.00,97.60 326.00,95.38 L 326.00 93.00 L 426.14 93.00 L 425.82 95.25 C425.54,97.22 424.75,97.57 419.50,98.08 C407.84,99.21 399.89,102.98 391.75,111.22 C388.59,114.42 384.71,119.62 383.12,122.77 C381.53,125.92 367.18,157.30 351.23,192.50 C319.67,262.17 282.27,344.59 270.01,371.50 C260.02,393.43 251.66,414.59 249.37,423.75 Z" fill="rgb(41,41,40)"/>
<path d="M 0.00 250.00 L 0.00 0.00 L 250.00 0.00 L 500.00 0.00 L 500.00 250.00 L 500.00 500.00 L 250.00 500.00 L 0.00 500.00 L 0.00 250.00 ZM 249.37 423.75 C251.66,414.59 260.02,393.43 270.01,371.50 C282.27,344.59 319.67,262.17 351.23,192.50 C367.18,157.30 381.53,125.92 383.12,122.77 C384.71,119.62 388.59,114.42 391.75,111.22 C399.89,102.98 407.84,99.21 419.50,98.08 C424.75,97.57 425.54,97.22 425.82,95.25 L 426.14 93.00 L 376.07 93.00 L 326.00 93.00 L 326.00 95.38 C326.00,97.60 326.44,97.80 332.29,98.17 C340.09,98.66 344.08,101.25 347.53,108.05 C350.38,113.68 350.58,116.76 348.54,123.54 C346.80,129.32 265.72,319.97 265.00,319.98 C264.62,319.99 202.15,169.07 186.17,129.55 C179.28,112.53 186.79,98.00 202.47,98.00 C206.64,98.00 207.00,97.80 207.00,95.50 L 207.00 93.00 L 132.50 93.00 L 58.00 93.00 L 58.00 95.36 C58.00,97.57 58.45,97.75 65.34,98.27 C74.59,98.97 83.55,103.14 90.85,110.14 C97.43,116.45 99.75,120.15 106.92,135.83 C112.11,147.14 156.61,243.05 190.99,317.00 C202.25,341.22 215.36,369.46 226.27,393.00 C246.10,435.79 243.63,431.00 245.84,431.00 C247.14,431.00 248.00,429.24 249.37,423.75 Z" fill="rgb(238,226,215)"/>
</g>
</svg>